<svg width="116" height="36" viewBox="0 0 116 36" fill="none" xmlns="http://www.w3.org/2000/svg">
<rect width="30" height="30" rx="5" fill="#7644E1"/>
<rect width="30" height="30" rx="5" fill="white" fill-opacity="0.4"/>
<path d="M14.75 15.25L16.83 15.61L17.793 27.083C17.87 28.02 18.653 28.739 19.593 28.736H30.502C31.399 28.738 32.16 28.078 32.287 27.19L33.236 20.632C33.342 19.899 32.833 19.219 32.101 19.113C32.037 19.104 17.164 19.099 17.164 19.099" stroke="#1A162E" stroke-width="1.5" stroke-linecap="round" stroke-linejoin="round"/>
<path d="M26.125 22.7949H28.898" stroke="#1A162E" stroke-width="1.5" stroke-linecap="round" stroke-linejoin="round"/>
<path fill-rule="evenodd" clip-rule="evenodd" d="M19.1544 32.2031C19.4554 32.2031 19.6984 32.4471 19.6984 32.7471C19.6984 33.0481 19.4554 33.2921 19.1544 33.2921C18.8534 33.2921 18.6104 33.0481 18.6104 32.7471C18.6104 32.4471 18.8534 32.2031 19.1544 32.2031Z" fill="#1A162E" stroke="#1A162E" stroke-width="1.5" stroke-linecap="round" stroke-linejoin="round"/>
<path fill-rule="evenodd" clip-rule="evenodd" d="M30.4346 32.2031C30.7356 32.2031 30.9796 32.4471 30.9796 32.7471C30.9796 33.0481 30.7356 33.2921 30.4346 33.2921C30.1336 33.2921 29.8906 33.0481 29.8906 32.7471C29.8906 32.4471 30.1336 32.2031 30.4346 32.2031Z" fill="#1A162E" stroke="#1A162E" stroke-width="1.5" stroke-linecap="round" stroke-linejoin="round"/>
<path d="M62.8 13.008C62.448 11.968 61.776 11.104 60.784 10.384C59.792 9.664 58.576 9.296 57.152 9.296C55.408 9.296 53.92 9.92 52.656 11.152C51.392 12.384 50.768 13.92 50.768 15.76C50.768 17.6 51.36 19.136 52.544 20.336C53.728 21.536 55.264 22.144 57.136 22.144C58.912 22.144 60.32 21.6 61.376 20.512C62.448 19.408 62.976 18.048 62.976 16.416V15.728H56.352V17.52H60.848C60.544 19.168 59.232 20.336 57.12 20.336C55.872 20.336 54.848 19.888 54.032 19.008C53.216 18.128 52.816 17.024 52.816 15.712C52.816 14.4 53.232 13.312 54.048 12.432C54.88 11.552 55.904 11.12 57.136 11.12C59.12 11.12 60.4 12.208 61.056 13.808L62.8 13.008ZM69.5926 13.424C69.4806 13.392 69.3366 13.376 69.1286 13.376C68.0886 13.376 67.3046 13.856 66.7766 14.816V13.456H64.9206V22H66.8246V17.664C66.8246 16.176 67.5926 15.328 69.0486 15.328C69.2566 15.328 69.4326 15.344 69.5926 15.376V13.424ZM74.9504 13.28C73.7024 13.28 72.6304 13.712 71.7504 14.56C70.8704 15.408 70.4224 16.464 70.4224 17.712C70.4224 18.96 70.8544 20.016 71.7344 20.864C72.6144 21.712 73.6864 22.144 74.9344 22.144C76.1984 22.144 77.2544 21.712 78.1184 20.864C78.9984 20 79.4304 18.944 79.4304 17.68C79.4304 16.432 78.9984 15.392 78.1184 14.544C77.2384 13.696 76.1824 13.28 74.9504 13.28ZM73.0784 15.792C73.5584 15.264 74.1824 15.008 74.9344 15.008C75.6864 15.008 76.3104 15.264 76.7744 15.792C77.2544 16.32 77.4944 16.96 77.4944 17.712C77.4944 18.464 77.2544 19.104 76.7904 19.632C76.3264 20.16 75.7024 20.416 74.9504 20.416C74.1984 20.416 73.5744 20.144 73.0944 19.616C72.6144 19.072 72.3744 18.432 72.3744 17.68C72.3744 16.928 72.6144 16.304 73.0784 15.792ZM85.2926 22.144C86.3326 22.144 87.1806 21.888 87.8366 21.376C88.4926 20.864 88.9566 20.256 89.1966 19.568L87.5326 18.832C87.1326 19.888 86.3966 20.416 85.3246 20.416C84.6046 20.416 83.9966 20.16 83.5166 19.648C83.0366 19.136 82.7966 18.48 82.7966 17.68C82.7966 16.896 83.0366 16.256 83.5166 15.76C84.0126 15.264 84.6046 15.008 85.3086 15.008C86.3966 15.008 87.1326 15.536 87.5006 16.576L89.1326 15.84C88.6206 14.32 87.2126 13.28 85.2926 13.28C84.0286 13.28 82.9726 13.712 82.1246 14.592C81.2766 15.472 80.8446 16.512 80.8446 17.712C80.8446 18.976 81.2766 20.032 82.1246 20.88C82.9726 21.728 84.0286 22.144 85.2926 22.144ZM98.886 18.288C98.902 18.144 98.918 17.952 98.918 17.696C98.918 16.368 98.55 15.312 97.814 14.496C97.078 13.68 96.054 13.28 94.758 13.28C93.526 13.28 92.502 13.712 91.686 14.576C90.87 15.44 90.454 16.48 90.454 17.712C90.454 18.976 90.886 20.048 91.734 20.896C92.598 21.744 93.67 22.16 94.934 22.16C96.47 22.16 97.862 21.424 98.582 20.096L97.206 19.184C96.742 20.064 95.974 20.512 94.902 20.512C94.246 20.512 93.67 20.304 93.174 19.888C92.678 19.456 92.422 18.928 92.406 18.288H98.886ZM94.758 14.912C95.974 14.912 96.918 15.648 96.982 16.848H92.502C92.678 15.68 93.59 14.912 94.758 14.912ZM105.546 13.424C105.434 13.392 105.29 13.376 105.082 13.376C104.042 13.376 103.258 13.856 102.73 14.816V13.456H100.874V22H102.778V17.664C102.778 16.176 103.546 15.328 105.002 15.328C105.21 15.328 105.386 15.344 105.546 15.376V13.424ZM108.307 13.456H106.131L109.939 21.04L107.587 26.208H109.619L115.491 13.456H113.427L110.963 19.056L108.307 13.456Z" fill="#1A162E"/>
</svg>
