<svg width="19" height="19" viewBox="0 0 19 19" fill="none" xmlns="http://www.w3.org/2000/svg">
<path d="M12.7812 8.1875V4.25C12.7812 3.37976 12.4355 2.54516 11.8202 1.92981C11.2048 1.31445 10.3702 0.96875 9.49996 0.96875C8.62971 0.96875 7.79512 1.31445 7.17976 1.92981C6.56441 2.54516 6.21871 3.37976 6.21871 4.25V8.1875M16.1552 6.44362L17.2603 16.9436C17.3216 17.5255 16.8666 18.0312 16.2812 18.0312H2.71871C2.58064 18.0314 2.44408 18.0025 2.31791 17.9464C2.19174 17.8904 2.07877 17.8084 1.98635 17.7058C1.89393 17.6032 1.82412 17.4824 1.78145 17.3511C1.73879 17.2197 1.72422 17.0809 1.73871 16.9436L2.84471 6.44362C2.87022 6.20174 2.98438 5.97786 3.16518 5.81516C3.34597 5.65246 3.5806 5.56246 3.82383 5.5625H15.1761C15.6801 5.5625 16.1027 5.94312 16.1552 6.44362ZM6.54683 8.1875C6.54683 8.27452 6.51226 8.35798 6.45073 8.41952C6.38919 8.48106 6.30573 8.51562 6.21871 8.51562C6.13168 8.51562 6.04822 8.48106 5.98669 8.41952C5.92515 8.35798 5.89058 8.27452 5.89058 8.1875C5.89058 8.10048 5.92515 8.01702 5.98669 7.95548C6.04822 7.89394 6.13168 7.85938 6.21871 7.85938C6.30573 7.85938 6.38919 7.89394 6.45073 7.95548C6.51226 8.01702 6.54683 8.10048 6.54683 8.1875ZM13.1093 8.1875C13.1093 8.27452 13.0748 8.35798 13.0132 8.41952C12.9517 8.48106 12.8682 8.51562 12.7812 8.51562C12.6942 8.51562 12.6107 8.48106 12.5492 8.41952C12.4877 8.35798 12.4531 8.27452 12.4531 8.1875C12.4531 8.10048 12.4877 8.01702 12.5492 7.95548C12.6107 7.89394 12.6942 7.85938 12.7812 7.85938C12.8682 7.85938 12.9517 7.89394 13.0132 7.95548C13.0748 8.01702 13.1093 8.10048 13.1093 8.1875Z" stroke="#875541" stroke-width="1.5" stroke-linecap="round" stroke-linejoin="round"/>
</svg>
