<svg width="20" height="20" viewBox="0 0 20 20" fill="none" xmlns="http://www.w3.org/2000/svg">
<path d="M12.3809 14.235C13.9335 14.0512 15.4591 13.6847 16.9259 13.1433C15.6837 11.7673 14.9973 9.97875 15 8.125V7.54167V7.5C15 6.17392 14.4732 4.90215 13.5356 3.96447C12.5979 3.02678 11.3261 2.5 10 2.5C8.67395 2.5 7.40218 3.02678 6.4645 3.96447C5.52682 4.90215 5.00003 6.17392 5.00003 7.5V8.125C5.00254 9.97886 4.31585 11.7675 3.07336 13.1433C4.51753 13.6767 6.04003 14.0475 7.6192 14.235M12.3809 14.235C10.7992 14.4226 9.20088 14.4226 7.6192 14.235M12.3809 14.235C12.501 14.6099 12.5308 15.0078 12.468 15.3964C12.4052 15.785 12.2516 16.1533 12.0195 16.4713C11.7875 16.7893 11.4836 17.048 11.1327 17.2263C10.7818 17.4047 10.3937 17.4976 10 17.4976C9.60638 17.4976 9.2183 17.4047 8.86737 17.2263C8.51644 17.048 8.21259 16.7893 7.98055 16.4713C7.74851 16.1533 7.59483 15.785 7.53204 15.3964C7.46925 15.0078 7.49911 14.6099 7.6192 14.235" stroke="#101F37" stroke-width="1.5" stroke-linecap="round" stroke-linejoin="round"/>
</svg>
