<svg width="17" height="17" viewBox="0 0 17 17" fill="none" xmlns="http://www.w3.org/2000/svg">
<g clip-path="url(#clip0_107_10171)">
<path d="M8.10759 1.36846C8.25277 1.01941 8.74723 1.01941 8.89241 1.36846L10.6486 5.59081C10.7098 5.73796 10.8482 5.83851 11.007 5.85124L15.5654 6.21669C15.9423 6.2469 16.0951 6.71716 15.8079 6.9631L12.3349 9.9381C12.2139 10.0418 12.161 10.2045 12.198 10.3595L13.2591 14.8077C13.3468 15.1754 12.9468 15.4661 12.6242 15.269L8.72153 12.8853C8.58553 12.8022 8.41447 12.8022 8.27847 12.8853L4.37585 15.269C4.05323 15.4661 3.6532 15.1754 3.74092 14.8077L4.80198 10.3595C4.83896 10.2045 4.7861 10.0418 4.66506 9.9381L1.19205 6.9631C0.904947 6.71716 1.05775 6.2469 1.43457 6.21669L5.99296 5.85124C6.15182 5.83851 6.29021 5.73796 6.35141 5.59081L8.10759 1.36846Z" fill="#F2F4F7"/>
<g clip-path="url(#clip1_107_10171)">
<path d="M8.10759 1.36846C8.25277 1.01941 8.74723 1.01941 8.89241 1.36846L10.6486 5.59081C10.7098 5.73796 10.8482 5.83851 11.007 5.85124L15.5654 6.21669C15.9423 6.2469 16.0951 6.71716 15.8079 6.9631L12.3349 9.9381C12.2139 10.0418 12.161 10.2045 12.198 10.3595L13.2591 14.8077C13.3468 15.1754 12.9468 15.4661 12.6242 15.269L8.72153 12.8853C8.58553 12.8022 8.41447 12.8022 8.27847 12.8853L4.37585 15.269C4.05323 15.4661 3.6532 15.1754 3.74092 14.8077L4.80198 10.3595C4.83896 10.2045 4.7861 10.0418 4.66506 9.9381L1.19205 6.9631C0.904947 6.71716 1.05775 6.2469 1.43457 6.21669L5.99296 5.85124C6.15182 5.83851 6.29021 5.73796 6.35141 5.59081L8.10759 1.36846Z" fill="#FDB022"/>
</g>
</g>
<defs>
<clipPath id="clip0_107_10171">
<rect width="17" height="17" fill="white"/>
</clipPath>
<clipPath id="clip1_107_10171">
<rect width="8.5" height="17" fill="white"/>
</clipPath>
</defs>
</svg>
